Coordinates
version=1
nRows=31
nColumns=38
inDegrees=no

Units are S.I. units (second, meters, Newtons, ...)
If the header above contains a line with 'inDegrees', this indicates whether rotational values are in degrees (yes) or radians (no).

endheader
time	pelvis_tilt	pelvis_list	pelvis_rotation	pelvis_tx	pelvis_ty	pelvis_tz	hip_flexion_r	hip_adduction_r	hip_rotation_r	knee_angle_r	ankle_angle_r	subtalar_angle_r	mtp_angle_r	hip_flexion_l	hip_adduction_l	hip_rotation_l	knee_angle_l	ankle_angle_l	subtalar_angle_l	mtp_angle_l	lumbar_extension	lumbar_bending	lumbar_rotation	arm_flex_r	arm_add_r	arm_rot_r	elbow_flex_r	pro_sup_r	wrist_flex_r	wrist_dev_r	arm_flex_l	arm_add_l	arm_rot_l	elbow_flex_l	pro_sup_l	wrist_flex_l	wrist_dev_l
35	2.76499	1.56205	-0.931221	0.539697	0.192624	0.909635	0.2991	-0.109316	-0.172502	0.648276	0.201331	0	0	0.293825	-0.0649255	-0.207078	0.628216	0.238348	0	0	-0.540765	0.17091	-0.0604656	0.346821	-0.339462	0.352455	0.401371	1.1363	0	0	0.175483	-0.297989	0.418241	0.795939	1.09223	0	0
35.01	2.37423	1.56474	-0.540973	0.5396	0.193398	0.912208	0.289479	-0.107915	-0.177541	0.623421	0.191641	0	0	0.283987	-0.0644334	-0.214749	0.602599	0.227507	0	0	-0.53055	0.169371	-0.0623818	0.339253	-0.341223	0.351317	0.40443	1.13712	0	0	0.172168	-0.297535	0.419157	0.794084	1.0938	0	0
35.02	1.74306	1.56547	0.0896006	0.539553	0.194233	0.914725	0.279015	-0.105891	-0.182333	0.597233	0.181869	0	0	0.273428	-0.0640843	-0.222867	0.576323	0.216652	0	0	-0.520523	0.167724	-0.0639859	0.331425	-0.34267	0.349533	0.407217	1.13798	0	0	0.168853	-0.297261	0.420244	0.792434	1.09521	0	0
35.03	1.19556	1.56395	0.636589	0.539523	0.195089	0.917143	0.26786	-0.103313	-0.186661	0.569326	0.171527	0	0	0.262722	-0.0636097	-0.230773	0.54972	0.205703	0	0	-0.510383	0.166002	-0.0653956	0.3235	-0.344209	0.348438	0.409846	1.13853	0	0	0.165759	-0.297145	0.421829	0.790889	1.09625	0	0
35.04	0.924007	1.56133	0.907722	0.539485	0.195982	0.919474	0.256373	-0.100658	-0.191731	0.541894	0.161449	0	0	0.251883	-0.0630973	-0.238366	0.52335	0.19492	0	0	-0.500315	0.164338	-0.0667282	0.315504	-0.345812	0.347674	0.412426	1.13873	0	0	0.162698	-0.297073	0.423589	0.789488	1.09713	0	0
35.05	0.822914	1.55874	1.0085	0.539448	0.196982	0.921767	0.244018	-0.0976977	-0.197599	0.515178	0.152173	0	0	0.240337	-0.0627327	-0.24559	0.497132	0.18422	0	0	-0.490678	0.162953	-0.068104	0.307467	-0.347216	0.347178	0.414571	1.13933	0	0	0.159579	-0.297091	0.425746	0.787974	1.09801	0	0
35.06	0.805087	1.55665	1.02635	0.539373	0.19804	0.924038	0.230293	-0.0942431	-0.203475	0.487527	0.142175	0	0	0.227523	-0.0621901	-0.251818	0.469913	0.172752	0	0	-0.481727	0.162026	-0.0697089	0.299477	-0.34874	0.34734	0.4168	1.14042	0	0	0.156409	-0.297181	0.428154	0.78658	1.09917	0	0
35.07	0.76513	1.55347	1.06676	0.53933	0.199069	0.925956	0.218394	-0.0904231	-0.20864	0.460369	0.13213	0	0	0.217102	-0.0618635	-0.257345	0.444777	0.162388	0	0	-0.471191	0.16125	-0.0717599	0.291479	-0.349953	0.347793	0.418567	1.14156	0	0	0.153004	-0.297426	0.430471	0.785263	1.10034	0	0
35.08	0.677783	1.54842	1.15434	0.539364	0.199965	0.927418	0.205673	-0.0862483	-0.19357	0.416601	0.108542	0	0	0.210369	-0.0613079	-0.262666	0.422043	0.153208	0	0	-0.458196	0.159945	-0.0739302	0.283616	-0.350574	0.347215	0.419638	1.14241	0	0	0.14941	-0.297802	0.432601	0.784102	1.10128	0	0
35.09	0.70465	1.54676	1.12835	0.539332	0.201081	0.929255	0.189647	-0.0812006	-0.196477	0.38479	0.0948645	0	0	0.197467	-0.0606888	-0.2669	0.395779	0.142405	0	0	-0.449239	0.159421	-0.0764341	0.27572	-0.353854	0.36236	0.424269	1.11717	0	0	0.14639	-0.299012	0.437459	0.783562	1.09565	0	0
35.1	0.710304	1.54435	1.1243	0.539275	0.20224	0.930839	0.181594	-0.0776111	-0.223496	0.377033	0.100091	0	0	0.18607	-0.0599831	-0.270746	0.370793	0.132795	0	0	-0.439187	0.158842	-0.0793977	0.268181	-0.353152	0.355709	0.423325	1.13602	0	0	0.142955	-0.299081	0.43788	0.781967	1.10758	0	0
35.11	0.697856	1.5418	1.1385	0.539205	0.203417	0.932204	0.168502	-0.0734316	-0.227018	0.348713	0.0891983	0	0	0.174865	-0.0585614	-0.273814	0.345359	0.123085	0	0	-0.428441	0.157818	-0.0828087	0.260232	-0.353345	0.356445	0.424134	1.13611	0	0	0.139479	-0.29968	0.440096	0.780764	1.10977	0	0
35.12	0.719165	1.54097	1.12043	0.538966	0.204804	0.93363	0.150813	-0.0684545	-0.229222	0.315691	0.0756121	0	0	0.160299	-0.0564085	-0.273605	0.317197	0.112005	0	0	-0.419146	0.157289	-0.0873747	0.251495	-0.353362	0.356389	0.425834	1.13611	0	0	0.13615	-0.300552	0.443364	0.779205	1.11162	0	0
35.13	0.711227	1.53892	1.13087	0.538864	0.206068	0.934764	0.136582	-0.0641668	-0.232562	0.286415	0.0643269	0	0	0.14826	-0.0543085	-0.273746	0.290915	0.10173	0	0	-0.408575	0.156124	-0.0913517	0.24332	-0.353382	0.357457	0.426914	1.13579	0	0	0.132994	-0.301253	0.44626	0.777483	1.11268	0	0
35.14	0.700418	1.53707	1.14352	0.538862	0.207275	0.935825	0.122839	-0.0601596	-0.236688	0.258456	0.0537981	0	0	0.135875	-0.0517599	-0.272619	0.263977	0.0906734	0	0	-0.398489	0.154442	-0.0945746	0.23556	-0.353404	0.358473	0.427906	1.13575	0	0	0.130463	-0.301787	0.449375	0.775556	1.11371	0	0
35.15	0.695511	1.53534	1.15002	0.53886	0.208507	0.9368	0.108987	-0.0559155	-0.240008	0.231327	0.0444257	0	0	0.123121	-0.0491644	-0.270599	0.236749	0.0794324	0	0	-0.388637	0.152803	-0.0975016	0.227865	-0.353016	0.357816	0.428694	1.1366	0	0	0.128059	-0.301925	0.45205	0.773019	1.11437	0	0
35.16	0.697269	1.53396	1.14986	0.538871	0.209803	0.937678	0.0937385	-0.0510456	-0.241543	0.202171	0.0338559	0	0	0.109631	-0.0465105	-0.267008	0.20903	0.0677852	0	0	-0.379173	0.151168	-0.100387	0.220094	-0.352179	0.356093	0.429617	1.13752	0	0	0.125613	-0.30203	0.454766	0.770328	1.11499	0	0
35.17	0.688163	1.53241	1.16031	0.538928	0.211149	0.938362	0.0788569	-0.0463214	-0.241358	0.172567	0.0221578	0	0	0.096305	-0.04352	-0.261994	0.181103	0.0557567	0	0	-0.369282	0.149032	-0.102911	0.212016	-0.351218	0.353999	0.430799	1.13767	0	0	0.123185	-0.302231	0.457996	0.767557	1.11546	0	0
35.18	0.626762	1.52982	1.22171	0.539195	0.212438	0.938617	0.0704702	-0.0428054	-0.23574	0.146558	0.00648564	0	0	0.0845236	-0.0388023	-0.255789	0.152575	0.0431868	0	0	-0.357542	0.144569	-0.104588	0.203723	-0.349897	0.352198	0.431804	1.13753	0	0	0.120547	-0.302813	0.46086	0.76574	1.11519	0	0
35.19	0.612036	1.52858	1.2372	0.539326	0.213885	0.939052	0.0540387	-0.0378776	-0.228658	0.111939	-0.0103098	0	0	0.0697238	-0.0350899	-0.247252	0.122473	0.0297555	0	0	-0.347758	0.141651	-0.106377	0.195555	-0.348875	0.351359	0.432484	1.13779	0	0	0.118282	-0.302533	0.462757	0.763101	1.11431	0	0
35.2	0.595368	1.5275	1.25435	0.539469	0.215414	0.939365	0.0384919	-0.0335998	-0.222369	0.0808211	-0.0245412	0	0	0.0540795	-0.0312399	-0.237062	0.0913572	0.0155871	0	0	-0.337964	0.138506	-0.107843	0.187363	-0.347812	0.351524	0.432927	1.13847	0	0	0.116002	-0.302214	0.46543	0.760013	1.11419	0	0
35.21	0.581697	1.52641	1.26828	0.539613	0.217017	0.939543	0.023471	-0.0295612	-0.216322	0.0519805	-0.036834	0	0	0.0379476	-0.027693	-0.225734	0.0597248	0.00101619	0	0	-0.328062	0.135394	-0.108874	0.179118	-0.346785	0.351963	0.43354	1.13871	0	0	0.11369	-0.301874	0.469396	0.756548	1.11486	0	0
35.22	0.568982	1.52497	1.28095	0.539783	0.218687	0.939539	0.00901514	-0.0256329	-0.209873	0.0239495	-0.0484171	0	0	0.0222741	-0.0246552	-0.214261	0.0288363	-0.0130881	0	0	-0.317662	0.132297	-0.109577	0.17095	-0.345641	0.352372	0.43411	1.13841	0	0	0.1112	-0.301332	0.472845	0.753002	1.1148	0	0
35.23	0.550122	1.52253	1.29946	0.540013	0.220339	0.939289	-0.00269559	-0.0222077	-0.204867	0	-0.0580319	0	0	0.00974217	-0.0223895	-0.206391	0.00255096	-0.0239708	0	0	-0.306119	0.129081	-0.110048	0.163025	-0.344316	0.352988	0.43441	1.1379	0	0	0.108588	-0.300641	0.475801	0.749583	1.11395	0	0
35.24	0.550776	1.52197	1.29693	0.540448	0.221503	0.939181	-0.00467541	-0.0212228	-0.204149	0	-0.0627991	0	0	0.00561109	-0.0207983	-0.202903	0	-0.0299816	0	0	-0.29784	0.126093	-0.109277	0.157119	-0.341689	0.348675	0.432251	1.14627	0	0	0.106565	-0.299244	0.476252	0.746163	1.11791	0	0
35.25	0.553505	1.52286	1.29433	0.540822	0.222677	0.939203	-0.00919949	-0.0205082	-0.203293	0	-0.0672337	0	0	0.000900627	-0.0213148	-0.203202	0	-0.0340068	0	0	-0.290896	0.123035	-0.109435	0.150462	-0.339927	0.349756	0.431975	1.14767	0	0	0.105671	-0.298213	0.47914	0.742737	1.1171	0	0
35.26	0.564065	1.52388	1.28396	0.541139	0.223944	0.939156	-0.0140411	-0.019521	-0.201919	0	-0.0708596	0	0	-0.00402587	-0.0221749	-0.203576	0	-0.0369696	0	0	-0.284196	0.120425	-0.109632	0.144247	-0.33812	0.351161	0.431481	1.14856	0	0	0.104773	-0.297109	0.482519	0.739083	1.11625	0	0
35.27	0.582322	1.52498	1.26621	0.541441	0.225163	0.939054	-0.0190675	-0.0184283	-0.200229	0	-0.0737497	0	0	-0.00909729	-0.0234117	-0.203435	0	-0.0391026	0	0	-0.277715	0.118213	-0.110066	0.138382	-0.336157	0.35325	0.430654	1.14913	0	0	0.103981	-0.295894	0.485767	0.735599	1.11497	0	0
35.28	0.608397	1.52606	1.241	0.541692	0.226388	0.938906	-0.0240902	-0.0171619	-0.198791	0	-0.0759875	0	0	-0.0141111	-0.0250284	-0.202761	0	-0.0406983	0	0	-0.271542	0.116457	-0.110665	0.132825	-0.333996	0.35493	0.429745	1.14895	0	0	0.103454	-0.294721	0.490364	0.731143	1.1148	0	0
35.29	0.637438	1.52722	1.21294	0.541897	0.227598	0.938734	-0.0290611	-0.0159257	-0.19719	0	-0.0772704	0	0	-0.0189973	-0.0267394	-0.201717	0	-0.0419028	0	0	-0.265823	0.11489	-0.111413	0.127835	-0.331586	0.356096	0.428897	1.14805	0	0	0.103232	-0.29335	0.494611	0.727022	1.11498	0	0
35.3	0.662051	1.52854	1.18947	0.5421	0.228707	0.938591	-0.0338828	-0.0150017	-0.195379	0	-0.0777889	0	0	-0.0237361	-0.0281733	-0.200197	0	-0.0426245	0	0	-0.26058	0.113192	-0.112564	0.12333	-0.328872	0.357144	0.428211	1.14711	0	0	0.103205	-0.291738	0.497614	0.723646	1.11459	0	0
